<?xml version="1.0" encoding="UTF-8"?>
<svg width="800" height="400" viewBox="0 0 800 400" xmlns="http://www.w3.org/2000/svg">
    <!-- Car body -->
    <path d="M200 250 C200 250 300 250 400 250 C500 250 600 250 600 250 C600 250 650 250 650 230 C650 210 600 200 600 200 L550 150 C550 150 450 150 400 150 C350 150 250 150 250 150 L200 200 C200 200 150 210 150 230 C150 250 200 250 200 250 Z" fill="#928DAB" stroke="#1F1C2C" stroke-width="3"/>
    
    <!-- Windows -->
    <path d="M270 170 L370 170 L370 210 L270 210 Z" fill="#1F1C2C" opacity="0.7"/>
    <path d="M430 170 L530 170 L530 210 L430 210 Z" fill="#1F1C2C" opacity="0.7"/>
    
    <!-- Wheels -->
    <circle cx="250" cy="250" r="40" fill="#1F1C2C"/>
    <circle cx="550" cy="250" r="40" fill="#1F1C2C"/>
    <circle cx="250" cy="250" r="25" fill="#928DAB"/>
    <circle cx="550" cy="250" r="25" fill="#928DAB"/>
    
    <!-- Headlights -->
    <ellipse cx="180" cy="220" rx="10" ry="5" fill="#FFF9C4"/>
    <ellipse cx="620" cy="220" rx="10" ry="5" fill="#FFF9C4"/>
    
    <!-- Text -->
    <text x="400" y="320" font-family="Arial" font-size="24" fill="#1F1C2C" text-anchor="middle">Car Rental System</text>
</svg>